<?xml version="1.0" encoding="utf-8"?>
<svg
	version="1.1"
	xmlns="http://www.w3.org/2000/svg"
	xmlns:xlink="http://www.w3.org/1999/xlink"
	x="0%" y="0%"
	width="100%" height="100%"
	viewBox="0 0 24.0 14.0"
	enable-background="new 0 0 24.0 14.0"
	xml:space="preserve">
	<path
		fill="#120055"
		stroke="#000000"
		fill-opacity="1.000"
		stroke-opacity="1.000"
		fill-rule="nonzero"
		stroke-width="0.0"
		stroke-linejoin="miter"
		stroke-linecap="square"
		d="M0.00,0.00L24.00,0.00L24.00,14.00L0.00,14.00z"/>
	<path
		fill="#00E6F4"
		stroke="#000000"
		fill-opacity="1.000"
		stroke-opacity="0.000"
		fill-rule="nonzero"
		stroke-width="0.14"
		stroke-linejoin="miter"
		stroke-linecap="square"
		d="M-1.20,21.00C-1.84,15.37,-2.47,9.75,-1.20,7.00C0.07,4.25,3.25,4.39,6.00,4.20C8.75,4.01,11.08,3.50,14.40,1.40C17.72,-0.70,22.03,-4.40,24.00,-1.40C25.97,1.60,25.58,11.30,25.20,21.00"/>
	<path
		fill="#005492"
		stroke="#000000"
		fill-opacity="1.000"
		stroke-opacity="0.000"
		fill-rule="nonzero"
		stroke-width="0.14"
		stroke-linejoin="miter"
		stroke-linecap="square"
		d="M-1.20,23.80C-1.72,12.92,-2.24,2.04,-1.20,-1.40C-0.16,-4.84,2.44,-0.85,4.80,1.40C7.16,3.65,9.27,4.16,13.20,4.20C17.13,4.24,22.90,3.81,25.20,7.00C27.50,10.19,26.35,16.99,25.20,23.80"/>
	<path
		fill="#4290FF"
		stroke="#000000"
		fill-opacity="1.000"
		stroke-opacity="0.000"
		fill-rule="nonzero"
		stroke-width="0.14"
		stroke-linejoin="miter"
		stroke-linecap="square"
		d="M-1.20,26.60C-3.14,19.41,-5.09,12.21,-3.60,8.40C-2.11,4.59,2.81,4.16,6.00,5.60C9.19,7.04,10.64,10.35,14.40,9.80C18.16,9.25,24.22,4.84,26.40,7.00C28.58,9.16,26.89,17.88,25.20,26.60"/>
	<path
		fill="#002C6A"
		stroke="#000000"
		fill-opacity="1.000"
		stroke-opacity="0.000"
		fill-rule="nonzero"
		stroke-width="0.14"
		stroke-linejoin="miter"
		stroke-linecap="square"
		d="M-1.20,18.20C-0.17,15.94,0.86,13.67,2.40,11.20C3.94,8.73,5.99,6.05,8.40,5.60C10.81,5.15,13.57,6.93,16.80,5.60C20.03,4.27,23.72,-0.18,25.20,1.40C26.68,2.98,25.94,10.59,25.20,18.20"/>
	<path
		fill="#0064F4"
		stroke="#000000"
		fill-opacity="1.000"
		stroke-opacity="0.000"
		fill-rule="nonzero"
		stroke-width="0.14"
		stroke-linejoin="miter"
		stroke-linecap="square"
		d="M-1.20,15.40C-1.33,14.57,-1.46,13.74,0.00,12.60C1.46,11.46,4.51,10.01,7.20,9.80C9.89,9.59,12.22,10.60,15.60,9.80C18.98,9.00,23.42,6.37,25.20,7.00C26.98,7.63,26.09,11.51,25.20,15.40"/>
</svg>