<?xml version="1.0" encoding="utf-8"?>
<svg
	version="1.1"
	xmlns="http://www.w3.org/2000/svg"
	xmlns:xlink="http://www.w3.org/1999/xlink"
	x="0%" y="0%"
	width="100%" height="100%"
	viewBox="0 0 24.0 14.0"
	enable-background="new 0 0 24.0 14.0"
	xml:space="preserve">
	<path
		fill="#120055"
		stroke="#000000"
		fill-opacity="1.000"
		stroke-opacity="1.000"
		fill-rule="nonzero"
		stroke-width="0.0"
		stroke-linejoin="miter"
		stroke-linecap="square"
		d="M0.00,0.00L24.00,0.00L24.00,14.00L0.00,14.00z"/>
	<path
		fill="#00E6F4"
		stroke="#000000"
		fill-opacity="1.000"
		stroke-opacity="0.000"
		fill-rule="nonzero"
		stroke-width="0.14"
		stroke-linejoin="miter"
		stroke-linecap="square"
		d="M25.20,21.00C25.84,15.37,26.47,9.75,25.20,7.00C23.93,4.25,20.75,4.39,18.00,4.20C15.25,4.01,12.92,3.50,9.60,1.40C6.28,-0.70,1.97,-4.40,0.00,-1.40C-1.97,1.60,-1.58,11.30,-1.20,21.00"/>
	<path
		fill="#005492"
		stroke="#000000"
		fill-opacity="1.000"
		stroke-opacity="0.000"
		fill-rule="nonzero"
		stroke-width="0.14"
		stroke-linejoin="miter"
		stroke-linecap="square"
		d="M25.20,23.80C25.72,12.92,26.24,2.04,25.20,-1.40C24.16,-4.84,21.56,-0.85,19.20,1.40C16.84,3.65,14.73,4.16,10.80,4.20C6.87,4.24,1.10,3.81,-1.20,7.00C-3.50,10.19,-2.35,16.99,-1.20,23.80"/>
	<path
		fill="#4290FF"
		stroke="#000000"
		fill-opacity="1.000"
		stroke-opacity="0.000"
		fill-rule="nonzero"
		stroke-width="0.14"
		stroke-linejoin="miter"
		stroke-linecap="square"
		d="M25.20,26.60C27.14,19.41,29.09,12.21,27.60,8.40C26.11,4.59,21.19,4.16,18.00,5.60C14.81,7.04,13.36,10.35,9.60,9.80C5.84,9.25,-0.22,4.84,-2.40,7.00C-4.58,9.16,-2.89,17.88,-1.20,26.60"/>
	<path
		fill="#002C6A"
		stroke="#000000"
		fill-opacity="1.000"
		stroke-opacity="0.000"
		fill-rule="nonzero"
		stroke-width="0.14"
		stroke-linejoin="miter"
		stroke-linecap="square"
		d="M25.20,18.20C24.17,15.94,23.14,13.67,21.60,11.20C20.06,8.73,18.01,6.05,15.60,5.60C13.19,5.15,10.43,6.93,7.20,5.60C3.97,4.27,0.28,-0.18,-1.20,1.40C-2.68,2.98,-1.94,10.59,-1.20,18.20"/>
	<path
		fill="#0064F4"
		stroke="#000000"
		fill-opacity="1.000"
		stroke-opacity="0.000"
		fill-rule="nonzero"
		stroke-width="0.14"
		stroke-linejoin="miter"
		stroke-linecap="square"
		d="M25.20,15.40C25.33,14.57,25.46,13.74,24.00,12.60C22.54,11.46,19.49,10.01,16.80,9.80C14.11,9.59,11.78,10.60,8.40,9.80C5.02,9.00,0.58,6.37,-1.20,7.00C-2.98,7.63,-2.09,11.51,-1.20,15.40"/>
</svg>