<svg height="512" viewBox="0 0 64 64" width="512" xmlns="http://www.w3.org/2000/svg"><g id="_12-research" data-name="12-research"><path d="m19 6h26v12h-26z" fill="#f6fafd"></path><path d="m53 3v56h-40a4 4 0 0 1 -4-4v-2h40v-50z" fill="#f6fafd"></path><path d="m15 1v52h-6v-50a2.006 2.006 0 0 1 2-2z" fill="#5ce0bf"></path><path d="m49 3v50h-34v-52h34zm-4 15v-12h-26v12z" fill="#ffe474"></path><path d="m37.126 6h7.874v12h-20.456c-5.396 7.756-9.544 18.937-9.544 35h34v-52a37.181 37.181 0 0 0 -11.874 5z" fill="#ffca6b"></path><path d="m24.544 18h20.456v-12h-7.874a43.041 43.041 0 0 0 -12.582 12z" fill="#cdd2e1"></path><path d="m12 1h3v52h-3z" fill="#4fd3b2"></path><path d="m24 49h-5v-5h2v3h3z" fill="#f6fafd"></path><path d="m19 40h2v2h-2z" fill="#f6fafd"></path><circle cx="38.64" cy="38.64" fill="#8ed8f8" r="11.724"></circle><path d="m62.14 57.99a2.934 2.934 0 0 1 -4.15 4.15l-4.83-4.84 4.14-4.14z" fill="#5ce0bf"></path><path d="m57.99 52.46-.69.7-4.14 4.14-.7.69-2.76-2.76 1.38-1.38 2.77-2.77 1.38-1.38z" fill="#5ce0bf"></path><path d="m53.85 51.08-2.77 2.77-2.76-2.77-.07-.1a15.56 15.56 0 0 0 2.73-2.73l.1.07z" fill="#99a1b1"></path><path d="m49 26.92c.24.21.47.43.7.66a15.628 15.628 0 0 1 1.28 20.67 15.56 15.56 0 0 1 -2.73 2.73 15.641 15.641 0 1 1 .75-24.06zm-2.07 20.01a11.724 11.724 0 1 0 -16.58 0 11.7 11.7 0 0 0 16.58 0z" fill="#ff6f79"></path><path d="m40.57 44.34a15.63 15.63 0 0 1 -9.034-15.015 11.99 11.99 0 0 0 -1.186 1.025 11.724 11.724 0 1 0 17.592 15.41 15.626 15.626 0 0 1 -7.372-1.42z" fill="#32c5f4"></path><path d="m46.93 46.93a11.724 11.724 0 0 1 -16.58-16.58 11.99 11.99 0 0 1 1.186-1.025 15.638 15.638 0 0 1 1.141-5.143 15.641 15.641 0 1 0 15.573 26.798 15.56 15.56 0 0 0 2.73-2.73 15.541 15.541 0 0 0 2.12-3.65 15.61 15.61 0 0 1 -5.161 1.159 11.7 11.7 0 0 1 -1.009 1.171z" fill="#e95465"></path><path d="m53.16 57.3 4.83 4.84a2.927 2.927 0 0 0 4.15 0l-6.91-6.91z" fill="#4fd3b2"></path><path d="m55.23 55.23 2.07-2.07.69-.7-2.76-2.76-1.38 1.38-1.385 1.385z" fill="#4fd3b2"></path><path d="m53.85 51.08-2.77-2.76-.1-.07a15.809 15.809 0 0 1 -1.28 1.45l2.765 2.765z" fill="#606676"></path><path d="m33.817 33.817-1.417-1.417a8.829 8.829 0 0 1 12.474 0l-1.414 1.414a6.83 6.83 0 0 0 -9.646 0z" fill="#f6fafd"></path><g fill="#99a1b1"><path d="m22 9h2v2h-2z"></path><path d="m26 9h16v2h-16z"></path><path d="m22 13h20v2h-20z"></path></g></g></svg>