<svg height="512" viewBox="0 0 59 59" width="512" xmlns="http://www.w3.org/2000/svg"><g id="Page-1" fill="none" fill-rule="evenodd"><g id="042---Checklist-Goals" fill-rule="nonzero"><path id="Shape" d="m52 59c-.3521024.0002152-.6783715-.1847592-.859-.487l-3.526-5.9c-.1908554-.3070591-.2011086-.6932245-.0268163-1.0099788.1742922-.3167543.5059854-.5147657.8675118-.5178798.3615265-.0031142.6965815.1891538.8763045.5028586l3.525 5.9c.1840123.3087169.1882074.6924354.0109885 1.0051016-.1772188.3126662-.5085915.5061853-.8679885.5068984z" fill="#bdc3c7"></path><path id="Shape" d="m32 59c-.3597119-.0004993-.6914393-.1941559-.8687246-.5071461-.1772852-.3129902-.1728081-.6970812.0117246-1.0058539l3.525-5.9c.179723-.3137048.514778-.5059728.8763045-.5028586.3615264.0031141.6932196.2011255.8675118.5178798.1742923.3167543.1640391.7029197-.0268163 1.0099788l-3.526 5.9c-.1803801.3026247-.5066952.4880051-.859.488z" fill="#bdc3c7"></path><path id="Shape" d="m38 26.5v-17.5c0-1.65685425-1.3431458-3-3-3h-32c-1.65685425 0-3 1.34314575-3 3v42c0 1.6568542 1.34314575 3 3 3h28.41z" fill="#f29c1f"></path><path id="Shape" d="m34 28.14v-17.14c0-.5522847-.4477153-1-1-1h-28c-.55228475 0-1 .4477153-1 1v38c0 .5522847.44771525 1 1 1h23.14z" fill="#f9eab0"></path><circle id="Oval" cx="42" cy="42" fill="#e64c3c" r="16"></circle><circle id="Oval" cx="42" cy="42" fill="#fff" r="12"></circle><circle id="Oval" cx="42" cy="42" fill="#e64c3c" r="8"></circle><circle id="Oval" cx="42" cy="42" fill="#fff" r="4"></circle><path id="Shape" d="m42 43c-.4043959-.0000863-.7689341-.2437275-.923678-.6173454-.1547439-.373618-.0692299-.8036603.216678-1.0896546l16-16c.3923789-.3789722 1.0160848-.3735524 1.4018186.0121814s.3911536 1.0094397.0121814 1.4018186l-16 16c-.1874927.1875494-.4418052.2929434-.707.293z" fill="#cbb292"></path><path id="Shape" d="m58 29h-2c-.5522847 0-1-.4477153-1-1v-2c0-.5522847.4477153-1 1-1s1 .4477153 1 1v1h1c.5522847 0 1 .4477153 1 1s-.4477153 1-1 1z" fill="#7f6e5d"></path><path id="Shape" d="m10 20c-.26519481-.0000566-.51950727-.1054506-.707-.293l-1-1c-.37897221-.3923789-.37355237-1.0160848.01218142-1.4018186.3857338-.3857338 1.00943969-.3911536 1.40181858-.0121814l.138.138 1.323-1.986c.1982824-.297245.5400812-.4661282.8966441-.4430331s.6737195.2346599.832.555c.1582805.32034.1336383.7007881-.0646441.9980331l-2 3c-.1648955.250626-.4336016.4139788-.732.445-.035 0-.067 0-.1 0z" fill="#4fba6f"></path><path id="Shape" d="m16 19c-.5522847 0-1-.4477153-1-1s.4477153-1 1-1h13c.5522847 0 1 .4477153 1 1s-.4477153 1-1 1z" fill="#a59078"></path><path id="Shape" d="m10 28c-.26519481-.0000566-.51950727-.1054506-.707-.293l-1-1c-.37897221-.3923789-.37355237-1.0160848.01218142-1.4018186.3857338-.3857338 1.00943969-.3911536 1.40181858-.0121814l.138.138 1.323-1.986c.306518-.4595009.9274991-.583518 1.387-.277s.583518.9274991.277 1.387l-2 3c-.1648955.250626-.4336016.4139788-.732.445-.035 0-.067 0-.1 0z" fill="#4fba6f"></path><path id="Shape" d="m16 27c-.5522847 0-1-.4477153-1-1s.4477153-1 1-1h13c.5522847 0 1 .4477153 1 1s-.4477153 1-1 1z" fill="#a59078"></path><path id="Shape" d="m22 43h-6c-.5522847 0-1-.4477153-1-1s.4477153-1 1-1h6c.5522847 0 1 .4477153 1 1s-.4477153 1-1 1z" fill="#a59078"></path><path id="Shape" d="m10 36c-.26519481-.0000566-.51950727-.1054506-.707-.293l-1-1c-.37897221-.3923789-.37355237-1.0160848.01218142-1.4018186.3857338-.3857338 1.00943969-.3911536 1.40181858-.0121814l.138.138 1.323-1.986c.306518-.4595009.9274991-.583518 1.387-.277.4595009.3065181.583518.9274991.277 1.387l-2 3c-.1661646.2489813-.4351274.4104324-.733.44-.034.005-.066.005-.099.005z" fill="#4fba6f"></path><path id="Shape" d="m10 44c-.26519481-.0000566-.51950727-.1054506-.707-.293l-1-1c-.37897221-.3923789-.37355237-1.0160848.01218142-1.4018186.3857338-.3857338 1.00943969-.3911536 1.40181858-.0121814l.138.138 1.323-1.986c.1982824-.297245.5400812-.4661282.8966441-.4430331s.6737195.2346599.832.555c.1582805.32034.1336383.7007881-.0646441.9980331l-2 3c-.1648955.250626-.4336016.4139788-.732.445-.035 0-.067 0-.1 0z" fill="#4fba6f"></path><path id="Shape" d="m23.67 35h-7.67c-.5522847 0-1-.4477153-1-1s.4477153-1 1-1h7.67c.5522847 0 1 .4477153 1 1s-.4477153 1-1 1z" fill="#a59078"></path><path id="Shape" d="m8 8v2c0 .5522847.44771525 1 1 1h20c.5522847 0 1-.4477153 1-1v-2c0-1.65685425-1.3431458-3-3-3h-4v-1c0-2.209139-1.790861-4-4-4s-4 1.790861-4 4v1h-4c-1.65685425 0-3 1.34314575-3 3z" fill="#bdc3c7"></path><circle id="Oval" cx="19" cy="4" fill="#606060" r="1"></circle></g></g></svg>