<svg height="512" viewBox="0 0 64 64" width="512" xmlns="http://www.w3.org/2000/svg"><g id="_10-Presentation" data-name="10-Presentation"><path d="m53 1v4h-2-48-2v-4z" fill="#a37862"></path><path d="m53 3v2h-2-48-2v-2z" fill="#966857"></path><path d="m27 9v10h-10a10 10 0 0 1 10-10z" fill="#ff7d81"></path><path d="m34 26 .07.07a10 10 0 0 1 -17.07-7.07h10z" fill="#ffac5a"></path><path d="m27 9a10 10 0 0 1 7.07 17.07l-.07-.07-7-7z" fill="#80dbff"></path><path d="m51 5v18l-.01.06a8.1 8.1 0 0 0 -.99-.06 8 8 0 0 0 -8 8v3h-1v2a2.006 2.006 0 0 0 2 2h1v1a5.944 5.944 0 0 0 1.76 4.24 5.752 5.752 0 0 0 1.24.95v2.81h-10l-5-5-5-5-2 2 2 2v2l2 2 2 2h-28v-42zm-14 14a10 10 0 1 0 -2.93 7.07 10 10 0 0 0 2.93-7.07z" fill="#f0f0f0"></path><path d="m32 42-3 3-2-2v-2l-2-2 2-2z" fill="#ffcdbe"></path><path d="m58 63h-8v-13l3-3 10 3v13z" fill="#80dbff"></path><path d="m53 47-3 3v2a7.1 7.1 0 0 1 7.064-1.781l5.936 1.781v-2z" fill="#19cffc"></path><path d="m59 34v2a2.006 2.006 0 0 1 -2 2h-1v-4z" fill="#e09380"></path><path d="m53 44.19a5.961 5.961 0 0 1 -6 0 5.752 5.752 0 0 1 -1.24-.95 5.944 5.944 0 0 1 -1.76-4.24v-5a2.938 2.938 0 0 0 3-3s0 3 9 3v5a5.985 5.985 0 0 1 -3 5.19z" fill="#ffcdbe"></path><path d="m47 31a2.938 2.938 0 0 1 -3 3v3a2.938 2.938 0 0 0 3-3s0 3 9 3v-3c-9 0-9-3-9-3z" fill="#faa68e"></path><path d="m53 44.19v2.81l-3 3-3-3v-2.81a5.961 5.961 0 0 0 6 0z" fill="#e09380"></path><path d="m50 50v13h-8v-11h-6l-5-5-2-2 3-3 5 5h10z" fill="#b5efff"></path><path d="m47 47h-10l-5-5-3 3 1 1a2.828 2.828 0 0 1 4 0l3 3h5.757a10.242 10.242 0 0 1 7.243 3v-2z" fill="#80dbff"></path><path d="m44 34v4h-1a2.006 2.006 0 0 1 -2-2v-2z" fill="#e09380"></path><g fill="#848484"><path d="m26 47h2v9h-2z"></path><path d="m7 32h2v2h-2z"></path><path d="m11 32h28v2h-28z"></path><path d="m7 36h15v2h-15z"></path><path d="m31 36h8v2h-8z"></path><path d="m7 40h15v2h-15z"></path><path d="m35 40h6v2h-6z"></path></g><path d="m3 5h4v42h-4z" fill="#d9d9d9"></path><path d="m47 5h4v23h-4z" fill="#d9d9d9"></path><path d="m58 31v3h-2c-9 0-9-3-9-3a2.938 2.938 0 0 1 -3 3h-2v-3a8 8 0 0 1 8-8 7.984 7.984 0 0 1 5.66 2.34 8.014 8.014 0 0 1 2.34 5.66z" fill="#966857"></path><path d="m47 29a2.938 2.938 0 0 1 -3 3h-2v2h2a2.938 2.938 0 0 0 3-3s0 3 9 3h2v-2h-2c-9 0-9-3-9-3z" fill="#8d5c4d"></path><path d="m27 12v-3a10 10 0 0 0 -10 10h3a7 7 0 0 1 7-7z" fill="#ff636e"></path><path d="m31.95 23.95a7 7 0 0 1 -11.95-4.95h-3a10 10 0 0 0 17.07 7.07l-.07-.07z" fill="#fc9942"></path><path d="m27 9v3a7 7 0 0 1 4.95 11.95l2.05 2.05.07.07a10 10 0 0 0 -7.07-17.07z" fill="#19cffc"></path><circle cx="27" cy="57" fill="#ff636e" r="2"></circle><path d="m26 57a2 2 0 0 1 1.5-1.929 1.966 1.966 0 0 0 -.5-.071 2 2 0 0 0 0 4 1.966 1.966 0 0 0 .5-.071 2 2 0 0 1 -1.5-1.929z" fill="#ff475a"></path><path d="m63.287 49.042-9.287-2.786v-1.52a6.991 6.991 0 0 0 3-5.736 3 3 0 0 0 3-3v-2a1 1 0 0 0 -1-1v-2a9 9 0 0 0 -18 0v2a1 1 0 0 0 -1 1v2a3 3 0 0 0 3 3 6.992 6.992 0 0 0 3 5.736v1.264h-8.586l-4.707-4.707-5-5a1 1 0 0 0 -1.414 0l-2 2a1 1 0 0 0 0 1.414l1.707 1.707v1.586a1 1 0 0 0 .293.707l2 2 .293.293h-24.586v-40h46v15h2v-15h1a1 1 0 0 0 1-1v-4a1 1 0 0 0 -1-1h-52a1 1 0 0 0 -1 1v4a1 1 0 0 0 1 1h1v41a1 1 0 0 0 1 1h23v6.184a3 3 0 1 0 2 0v-6.184h2.586l4.707 4.707a1 1 0 0 0 .707.293h5v10a1 1 0 0 0 1 1h21a1 1 0 0 0 1-1v-13a1 1 0 0 0 -.713-.958zm-61.287-47.042h50v2h-50zm25 56a1 1 0 1 1 1-1 1 1 0 0 1 -1 1zm31-22a1 1 0 0 1 -1 1v-2h1zm-16 0v-1h1v2a1 1 0 0 1 -1-1zm1-3v-2a7 7 0 0 1 14 0v2h-1c-7.292 0-7.982-2-8-2a1 1 0 0 0 -2 0 1.882 1.882 0 0 1 -2 2zm2 6v-4.126a3.94 3.94 0 0 0 2.4-1.647c1.207.859 3.45 1.651 7.6 1.76v4.013a5 5 0 0 1 -10 0zm5 7a6.956 6.956 0 0 0 2-.3v.881l-2 2-2-2v-.881a6.956 6.956 0 0 0 2 .3zm-23.586-7 .586-.586 3.586 3.586-1.586 1.586-1-1v-1.586a1 1 0 0 0 -.293-.707zm15.586 12h-5.586l-6-6 1.586-1.586 4.293 4.293a1 1 0 0 0 .707.293h9.586l2.414 2.414v11.586h-6v-10a1 1 0 0 0 -1-1zm20 11h-3v-7h-2v7h-6v-11.586l2.285-2.284 8.715 2.614z"></path><path d="m38 19a11 11 0 1 0 -11 11 11.013 11.013 0 0 0 11-11zm-2 0a8.948 8.948 0 0 1 -1.975 5.611l-6.025-6.025v-8.527a9.01 9.01 0 0 1 8 8.941zm-10-8.941v7.941h-7.941a9.012 9.012 0 0 1 7.941-7.941zm-7.941 9.941h8.527l6.025 6.025a8.986 8.986 0 0 1 -14.552-6.025z"></path><path d="m7 32h2v2h-2z"></path><path d="m11 32h28v2h-28z"></path><path d="m7 36h15v2h-15z"></path><path d="m31 36h8v2h-8z"></path><path d="m7 40h15v2h-15z"></path><path d="m35 40h6v2h-6z"></path></g></svg>