<?xml version="1.0" encoding="utf-8"?>
<svg
	version="1.1"
	xmlns="http://www.w3.org/2000/svg"
	xmlns:xlink="http://www.w3.org/1999/xlink"
	x="0%" y="0%"
	width="100%" height="100%"
	viewBox="0 0 24.0 14.0"
	enable-background="new 0 0 24.0 14.0"
	xml:space="preserve">
	<path
		fill="#FFFFFF"
		stroke="#000000"
		fill-opacity="1.000"
		stroke-opacity="1.000"
		fill-rule="nonzero"
		stroke-width="0.0"
		stroke-linejoin="miter"
		stroke-linecap="square"
		d="M0.00,0.00L24.00,0.00L24.00,14.00L0.00,14.00z"/>
	<path
		fill="#0E0074"
		stroke="#000000"
		fill-opacity="1.000"
		stroke-opacity="0.000"
		fill-rule="nonzero"
		stroke-width="0.14"
		stroke-linejoin="miter"
		stroke-linecap="square"
		d="M-2.60,14.25C-2.34,8.06,-2.09,1.88,-1.20,0.25C-0.31,-1.38,1.20,1.54,3.00,3.05C4.80,4.55,6.87,4.64,8.40,4.20C9.93,3.76,10.93,2.78,12.00,2.80C13.07,2.82,14.23,3.83,15.60,4.20C16.97,4.57,18.56,4.31,20.40,2.80C22.24,1.29,24.33,-1.45,25.40,0.25C26.47,1.95,26.54,8.10,26.60,14.25"/>
	<path
		fill="#1D14B3"
		stroke="#00DD00"
		fill-opacity="1.000"
		stroke-opacity="0.000"
		fill-rule="nonzero"
		stroke-width="0.14"
		stroke-linejoin="miter"
		stroke-linecap="square"
		d="M-2.60,14.25C-2.34,10.65,-2.08,7.06,-1.20,5.60C-0.32,4.14,1.18,4.80,2.40,5.60C3.62,6.40,4.56,7.33,6.00,7.00C7.44,6.67,9.39,5.08,12.00,5.60C14.61,6.12,17.89,8.75,18.00,11.20C18.11,13.65,15.06,15.93,12.00,18.20"/>
	<path
		fill="#095EAF"
		stroke="#00DD00"
		fill-opacity="1.000"
		stroke-opacity="0.000"
		fill-rule="nonzero"
		stroke-width="0.14"
		stroke-linejoin="miter"
		stroke-linecap="square"
		d="M3.60,15.40C5.40,13.94,7.21,12.48,8.40,11.20C9.59,9.92,10.17,8.81,12.00,8.40C13.83,7.99,16.89,8.26,19.20,7.00C21.51,5.74,23.05,2.95,24.00,4.20C24.95,5.45,25.30,10.76,25.20,14.00C25.10,17.24,24.55,18.42,24.00,19.60"/>
	<path
		fill="#1179BE"
		stroke="#00DD00"
		fill-opacity="1.000"
		stroke-opacity="0.000"
		fill-rule="nonzero"
		stroke-width="0.14"
		stroke-linejoin="miter"
		stroke-linecap="square"
		d="M-3.30,19.06C-2.49,15.00,-1.68,10.94,0.00,9.80C1.68,8.66,4.22,10.43,6.00,11.20C7.78,11.97,8.80,11.73,9.60,11.20C10.40,10.67,11.00,9.85,12.00,9.80C13.00,9.75,14.41,10.47,15.60,11.20C16.79,11.93,17.75,12.67,19.20,12.60C20.65,12.53,22.57,11.66,24.00,12.60C25.43,13.54,26.36,16.30,27.30,19.06"/>
</svg>